<svg xmlns="http://www.w3.org/2000/svg" viewBox="0 0 245.8 95"><defs><style>.cls-1{fill:#fff;}.cls-2{fill:#39b54a;}</style></defs><g id="Camada_2" data-name="Camada 2"><g id="Camada_1-2" data-name="Camada 1"><path class="cls-1" d="M109,61.11a12,12,0,0,1-3.14-.4,9.61,9.61,0,0,1-2.9-1.34,6.56,6.56,0,0,1-2.24-2.76,10.28,10.28,0,0,1-.84-4.34V49.39h6v2.8a4.46,4.46,0,0,0,.76,2.9,3.08,3.08,0,0,0,2.48.9,3.15,3.15,0,0,0,2.4-.88,3.52,3.52,0,0,0,.84-2.52V31h6V52.59a8.07,8.07,0,0,1-2.44,6.3C114.33,60.37,112,61.11,109,61.11Z"/><path class="cls-1" d="M132.44,38.23q5.09,0,7.9,3.06t2.82,8.54a11.49,11.49,0,0,1-2.88,8.24,11.55,11.55,0,0,1-15.64,0q-2.83-3.06-2.84-8.38t2.84-8.38A10.14,10.14,0,0,1,132.44,38.23Zm0,4.52a4.36,4.36,0,0,0-3.68,1.92,8.31,8.31,0,0,0-1.4,5,8.31,8.31,0,0,0,1.4,5,4.48,4.48,0,0,0,7.34,0,8,8,0,0,0,1.42-4.94,8.52,8.52,0,0,0-1.38-5.1A4.33,4.33,0,0,0,132.48,42.75Z"/><path class="cls-1" d="M146.16,38.59h5.6v3.12a7.37,7.37,0,0,1,6.48-3.48,7.06,7.06,0,0,1,5.34,2,7.6,7.6,0,0,1,1.9,5.52V60.19h-5.6V46.87q0-3.88-3.6-3.88A4.63,4.63,0,0,0,153,44.15a4,4,0,0,0-1.24,3.08v13h-5.6Z"/><path class="cls-1" d="M175.36,61.11a6.47,6.47,0,0,1-4.76-1.78,6.32,6.32,0,0,1-1.8-4.7q0-5.72,6.36-6.8l2.24-.4.8-.1a8.81,8.81,0,0,0,.92-.16c.14,0,.39-.1.78-.18a2.38,2.38,0,0,0,.82-.28c.16-.11.36-.25.58-.42a1.25,1.25,0,0,0,.46-.6,2.37,2.37,0,0,0,.12-.78q0-2.16-3.24-2.16a5,5,0,0,0-2.92.64,3.31,3.31,0,0,0-1,2.32h-5.4q.53-7.49,9.24-7.48t8.84,6.64v12a3.49,3.49,0,0,0,1.28,2.64v.68h-6.08a3.39,3.39,0,0,1-.64-2.16A9,9,0,0,1,175.36,61.11Zm6.52-9.6V50a10.52,10.52,0,0,1-2.36.68L177.6,51a5.2,5.2,0,0,0-2.48,1A2.5,2.5,0,0,0,174.4,54a2.39,2.39,0,0,0,.82,1.9,3.3,3.3,0,0,0,2.22.7,4.12,4.12,0,0,0,3.28-1.32A5.53,5.53,0,0,0,181.88,51.51Z"/><path class="cls-1" d="M196.16,53.91A3.56,3.56,0,0,0,197.3,56a5.32,5.32,0,0,0,3.26.72,6.88,6.88,0,0,0,3.06-.56,1.7,1.7,0,0,0,1.1-1.56,1.37,1.37,0,0,0-.42-1,3.64,3.64,0,0,0-1.46-.72l-6.68-2.08-.48-.14c-.29-.09-.5-.17-.62-.22l-.66-.26a3.14,3.14,0,0,1-.74-.38l-.66-.5a2.56,2.56,0,0,1-.62-.66c-.14-.24-.3-.51-.46-.82a4,4,0,0,1-.36-1.06,6.55,6.55,0,0,1-.12-1.28,6.45,6.45,0,0,1,2.38-5.26,10,10,0,0,1,6.5-1.94,10.85,10.85,0,0,1,6.84,1.94,6.63,6.63,0,0,1,2.56,5.38h-5.4q0-2.92-4-2.92a4.51,4.51,0,0,0-2.36.54,1.66,1.66,0,0,0-.88,1.46,1.24,1.24,0,0,0,.4,1,4.82,4.82,0,0,0,1.56.7l7.08,2q4.24,1.24,4.24,5.44a6.73,6.73,0,0,1-.44,2.42,7.69,7.69,0,0,1-1.42,2.34,6.72,6.72,0,0,1-2.94,1.86,13.69,13.69,0,0,1-4.64.7q-10,0-10.2-7.2Z"/><path class="cls-1" d="M223.48,39v3.72h-3.32V60.19h-5.6V42.75h-3V39h3v-2.6q0-5.4,5.52-5.4c1.1,0,2.16,0,3.2.12v4.2a9.74,9.74,0,0,0-1.6-.12c-1,0-1.52.56-1.52,1.68V39Z"/><path class="cls-1" d="M232.68,61.23v-.16l-8-22.48h6.16l4.76,15.72L240,38.59h5.76l-8.88,25.56a4.29,4.29,0,0,1-.16.54,3.6,3.6,0,0,1-.26.68c-.06.12-.17.35-.32.68a2.13,2.13,0,0,1-.46.72c-.16.15-.37.36-.64.64a2.8,2.8,0,0,1-.9.64c-.33.15-.71.3-1.14.46a6.46,6.46,0,0,1-1.48.34,14.91,14.91,0,0,1-1.84.1,13.92,13.92,0,0,1-2-.16v-4.2a5.83,5.83,0,0,0,1.48.24,3.31,3.31,0,0,0,2.48-1A3.54,3.54,0,0,0,232.68,61.23Z"/><circle class="cls-2" cx="47.5" cy="47.5" r="47.5"/><path d="M75.82,60.12s0-.07,0-.1V18.5a1.9,1.9,0,0,0,0-.67,2,2,0,0,0-3-1.36L35.62,26.16a2,2,0,0,0-1.37,1.29,2,2,0,0,0-.25.94V64a12.51,12.51,0,0,0-7-2c-6.07,0-11,4-11,9S21,80,27,80s11-4,11-9c0-.25,0-.5,0-.75V29.66l33.86-8.81V54.07a12.54,12.54,0,0,0-7-2c-6.07,0-11,4-11,9s4.92,9,11,9,11-4,11-9a6.58,6.58,0,0,0-.06-.9ZM27.08,76c-4.14,0-7-2.63-7-5s2.89-5,7-5c3.69,0,6.38,2.08,6.92,4.2v0a1.86,1.86,0,0,0,.1.58c0,.06,0,.12,0,.18,0,2.35-2.88,5-7,5ZM64.86,66c-4.1,0-7-2.62-7-5s2.87-5,7-5,7,2.62,7,5-2.86,5-7,5Z"/></g></g></svg>