<svg xmlns="http://www.w3.org/2000/svg" viewBox="0 0 245.9 95"><defs><style>.cls-1{fill:#39b54a;}.cls-2{fill:#fff;}</style></defs><g id="Camada_2" data-name="Camada 2"><g id="Camada_1-2" data-name="Camada 1"><circle class="cls-1" cx="47.5" cy="47.5" r="47.5"/><path d="M76,59.67s0-.06,0-.1V18a1.9,1.9,0,0,0,0-.67,2,2,0,0,0-2-1.64A1.94,1.94,0,0,0,73,16L35.63,25.74A1.92,1.92,0,0,0,34.25,27,1.9,1.9,0,0,0,34,28V63.56a12.62,12.62,0,0,0-7-2c-6.1,0-11,4-11,9s4.94,9,11,9,11-4,11-9c0-.26,0-.51,0-.76V29.24l34-8.85V53.6a12.55,12.55,0,0,0-7-2c-6.09,0-11,4-11,9s4.95,9,11,9,11-4,11-9a6.84,6.84,0,0,0-.06-.91ZM27.08,75.52c-4.14,0-7-2.63-7-5s2.89-5,7-5c3.69,0,6.37,2.08,6.92,4.2v0a1.91,1.91,0,0,0,.1.58c0,.06,0,.12,0,.18,0,2.35-2.89,5-7,5ZM64.72,66c-4.11,0-7-2.63-7-5s2.86-5,7-5,7,2.62,7,5-2.86,5-7,5Z"/><rect x="36.68" y="31.03" width="37" height="4" transform="translate(-6.68 15.45) rotate(-15.04)"/><ellipse cx="27.18" cy="70.53" rx="7.5" ry="5.5"/><ellipse cx="64.68" cy="61.03" rx="8" ry="6"/><path class="cls-2" d="M108.56,60.52a11.83,11.83,0,0,1-3.06-.39,9.25,9.25,0,0,1-2.82-1.32,6.35,6.35,0,0,1-2.19-2.7,10.25,10.25,0,0,1-.81-4.26V49h6v2.74a4.59,4.59,0,0,0,.7,2.85,2.76,2.76,0,0,0,2.3.88,2.86,2.86,0,0,0,2.22-.86,3.57,3.57,0,0,0,.78-2.47V31h6V52.17a8,8,0,0,1-2.38,6.17A9.62,9.62,0,0,1,108.56,60.52Z"/><path class="cls-2" d="M132,37.82q5.09,0,7.9,3.06c1.88,2,2.82,4.88,2.82,8.54a11.51,11.51,0,0,1-2.88,8.24,11.55,11.55,0,0,1-15.64,0c-1.89-2-2.84-4.84-2.84-8.38s1-6.34,2.84-8.38A10.14,10.14,0,0,1,132,37.82Zm0,4.52a4.36,4.36,0,0,0-3.68,1.92,8.31,8.31,0,0,0-1.4,5,8.31,8.31,0,0,0,1.4,5,4.48,4.48,0,0,0,7.34,0,8,8,0,0,0,1.42-4.94,8.49,8.49,0,0,0-1.38-5.1A4.33,4.33,0,0,0,132,42.34Z"/><path class="cls-2" d="M145.68,38h5v3.18a7.52,7.52,0,0,1,6.61-3.55,7.25,7.25,0,0,1,5.45,2,7.74,7.74,0,0,1,1.94,5.62V60h-5V46.71c0-2.59-1.19-3.88-3.55-3.88A4.5,4.5,0,0,0,152.9,44a4,4,0,0,0-1.22,3.08V60h-6Z"/><path class="cls-2" d="M174.89,60.7a6.51,6.51,0,0,1-4.76-1.78,6.32,6.32,0,0,1-1.8-4.7q0-5.72,6.36-6.8l2.24-.4.8-.1a8.81,8.81,0,0,0,.92-.16l.78-.18a2.38,2.38,0,0,0,.82-.28c.16-.11.36-.25.58-.42a1.3,1.3,0,0,0,.46-.6,2.37,2.37,0,0,0,.12-.78q0-2.16-3.24-2.16a5,5,0,0,0-2.92.64c-.56.43-.9,1.2-1,3.05h-5.4c.35-5.72,3.43-8.21,9.24-8.21s8.84,2.21,8.63,6.64v12a12.2,12.2,0,0,0,1,2.64V60h-5.59a4.8,4.8,0,0,1-.64-2.41A9,9,0,0,1,174.89,60.7Zm6.79-9.6V49.58a10.86,10.86,0,0,1-2.36.68l-1.92.36a5.15,5.15,0,0,0-2.48,1,2.5,2.5,0,0,0-.72,1.92,2.36,2.36,0,0,0,.82,1.9,3.27,3.27,0,0,0,2.22.7,4.15,4.15,0,0,0,3.28-1.32A5.55,5.55,0,0,0,181.68,51.1Z"/><path class="cls-2" d="M195.88,53A3.38,3.38,0,0,0,197,55a5.08,5.08,0,0,0,3.12.69,6.52,6.52,0,0,0,2.93-.54,1.63,1.63,0,0,0,1-1.49,1.32,1.32,0,0,0-.4-1,3.62,3.62,0,0,0-1.4-.68l-6.39-2-.46-.14c-.28-.09-.48-.16-.59-.21l-.63-.25a2.45,2.45,0,0,1-.71-.36l-.63-.48a2.22,2.22,0,0,1-.6-.63c-.14-.23-.28-.49-.44-.79a4,4,0,0,1-.34-1,5.94,5.94,0,0,1-.12-1.22,6.16,6.16,0,0,1,2.28-5A9.55,9.55,0,0,1,199.86,38a10.39,10.39,0,0,1,6.55,1.85A6.39,6.39,0,0,1,208.86,45h-5.17c0-1.86-1.31-2.79-3.87-2.79a4.31,4.31,0,0,0-2.25.51,1.57,1.57,0,0,0-.85,1.4,1.16,1.16,0,0,0,.39.94,4.69,4.69,0,0,0,1.49.67l6.77,2c2.71.79,4.06,2.53,4.06,5.2a6.57,6.57,0,0,1-.42,2.32,7.56,7.56,0,0,1-1.36,2.24,6.4,6.4,0,0,1-2.81,1.78,13.38,13.38,0,0,1-4.44.67q-9.54,0-9.76-6.89Z"/><path class="cls-2" d="M222.68,39v4h-3V60h-6V42h-3V38h3v-2.6q0-5.4,5.69-5.4c1.13,0,2.23,0,3.31.12V35a9.17,9.17,0,0,0-1.54-.12c-1,0-1.46.54-1.46,1.62V39Z"/><path class="cls-2" d="M232.68,60.67v-.16L224.57,38h6.21l4.8,15.72L240.1,38h5.8l-9,25.56a4.29,4.29,0,0,1-.16.54,6,6,0,0,1-.26.68c-.07.12-.18.35-.33.68a2.13,2.13,0,0,1-.46.72c-.16.15-.38.36-.64.64a3,3,0,0,1-.91.64c-.34.15-.72.3-1.15.46a6.68,6.68,0,0,1-1.49.34,15.36,15.36,0,0,1-1.86.1,13.94,13.94,0,0,1-2-.16V64a5.9,5.9,0,0,0,1.49.24,3.36,3.36,0,0,0,2.5-1A3.55,3.55,0,0,0,232.68,60.67Z"/></g></g></svg>